<svg xmlns="http://www.w3.org/2000/svg" width="50" height="50" viewBox="0 0 50 50">
  <g id="グループ_246" data-name="グループ 246" transform="translate(-1757 -32)">
    <circle id="楕円形_2" data-name="楕円形 2" cx="25" cy="25" r="25" transform="translate(1757 32)" fill="#f9a384"/>
    <g id="グループ_245" data-name="グループ 245">
      <path id="パス_39" data-name="パス 39" d="M57.4,494.5c3.822,0,4.275.014,5.785.083a7.938,7.938,0,0,1,2.658.493,4.738,4.738,0,0,1,2.717,2.717,7.938,7.938,0,0,1,.492,2.658c.069,1.51.084,1.962.084,5.784s-.015,4.275-.084,5.785a7.944,7.944,0,0,1-.492,2.658A4.738,4.738,0,0,1,65.84,517.4a7.946,7.946,0,0,1-2.658.492c-1.51.069-1.962.084-5.785.084s-4.275-.015-5.784-.084a7.94,7.94,0,0,1-2.658-.492,4.738,4.738,0,0,1-2.717-2.717,7.912,7.912,0,0,1-.493-2.658c-.069-1.51-.083-1.963-.083-5.785s.014-4.274.083-5.784a7.906,7.906,0,0,1,.493-2.658,4.738,4.738,0,0,1,2.717-2.717,7.932,7.932,0,0,1,2.658-.493c1.51-.069,1.962-.083,5.784-.083m0-2.579c-3.887,0-4.374.017-5.9.087a10.477,10.477,0,0,0-3.474.665,7.317,7.317,0,0,0-4.186,4.186,10.478,10.478,0,0,0-.665,3.474c-.07,1.527-.087,2.014-.087,5.9s.017,4.375.087,5.9a10.483,10.483,0,0,0,.665,3.474,7.317,7.317,0,0,0,4.186,4.186,10.505,10.505,0,0,0,3.474.665c1.527.07,2.014.086,5.9.086s4.375-.016,5.9-.086a10.511,10.511,0,0,0,3.474-.665,7.317,7.317,0,0,0,4.186-4.186,10.507,10.507,0,0,0,.665-3.474c.07-1.527.086-2.014.086-5.9s-.016-4.374-.086-5.9a10.5,10.5,0,0,0-.665-3.474,7.317,7.317,0,0,0-4.186-4.186,10.482,10.482,0,0,0-3.474-.665c-1.527-.07-2.014-.087-5.9-.087Z" transform="translate(1724.603 -449.239)" fill="#fff"/>
      <path id="パス_40" data-name="パス 40" d="M57.732,499.223a7.35,7.35,0,1,0,7.351,7.35A7.349,7.349,0,0,0,57.732,499.223Zm0,12.121a4.771,4.771,0,1,1,4.771-4.771A4.771,4.771,0,0,1,57.732,511.344Z" transform="translate(1724.269 -449.572)" fill="#fff"/>
      <circle id="楕円形_1" data-name="楕円形 1" cx="1.718" cy="1.718" r="1.718" transform="translate(1787.924 47.642)" fill="#fff"/>
    </g>
  </g>
</svg>
